<?xml version="1.0" encoding="UTF-8" standalone="no"?>
<!-- Created with Inkscape (http://www.inkscape.org/) -->

<svg
   version="1.1"
   id="svg1"
   width="179.41333"
   height="126.56"
   viewBox="0 0 179.41333 126.56"
   xmlns="http://www.w3.org/2000/svg"
   xmlns:svg="http://www.w3.org/2000/svg">
  <defs
     id="defs1" />
  <g
     id="g1">
    <path
       id="path1"
       d="m 13.344,70.703 -0.535,-1.805 h -0.024 l -0.562,1.805 z m -1.34,-3.476 c 0.016,-0.051 0.051,-0.086 0.109,-0.086 H 13.5 c 0.059,0 0.094,0.035 0.109,0.086 l 1.953,5.609 c 0.02,0.051 -0.007,0.086 -0.058,0.086 h -1.402 c -0.059,0 -0.094,-0.035 -0.11,-0.086 L 13.719,71.941 H 11.84 l -0.27,0.895 c -0.019,0.051 -0.05,0.086 -0.109,0.086 h -1.395 c -0.05,0 -0.078,-0.035 -0.062,-0.086 l 2,-5.609"
       style="fill:#0c244a;fill-opacity:1;fill-rule:nonzero;stroke:none"
       transform="scale(1.3333333)" />
    <path
       id="path2"
       d="m 20.773,70.703 -0.535,-1.805 h -0.023 l -0.563,1.805 z m -1.339,-3.476 c 0.015,-0.051 0.05,-0.086 0.109,-0.086 h 1.383 c 0.062,0 0.094,0.035 0.113,0.086 l 1.953,5.609 c 0.02,0.051 -0.008,0.086 -0.058,0.086 h -1.403 c -0.058,0 -0.093,-0.035 -0.109,-0.086 L 21.148,71.941 H 19.27 L 19,72.836 c -0.02,0.051 -0.051,0.086 -0.113,0.086 h -1.395 c -0.051,0 -0.074,-0.035 -0.058,-0.086 l 2,-5.609"
       style="fill:#0c244a;fill-opacity:1;fill-rule:nonzero;stroke:none"
       transform="scale(1.3333333)" />
    <path
       id="path3"
       d="m 25.246,67.227 c 0,-0.051 0.035,-0.086 0.086,-0.086 h 1.324 c 0.051,0 0.086,0.035 0.086,0.086 v 4.316 c 0,0.035 0.016,0.051 0.051,0.051 h 2.445 c 0.055,0 0.086,0.035 0.086,0.086 v 1.156 c 0,0.051 -0.031,0.086 -0.086,0.086 h -3.906 c -0.051,0 -0.086,-0.035 -0.086,-0.086 v -5.609"
       style="fill:#0c244a;fill-opacity:1;fill-rule:nonzero;stroke:none"
       transform="scale(1.3333333)" />
    <path
       id="path4"
       d="m 33.203,71.789 h 0.68 c 0.465,0 0.703,-0.23 0.703,-0.652 0,-0.403 -0.238,-0.649 -0.703,-0.649 h -0.68 c -0.035,0 -0.051,0.02 -0.051,0.051 v 1.199 c 0,0.035 0.016,0.051 0.051,0.051 z m 0.602,-2.328 c 0.449,0 0.687,-0.195 0.687,-0.594 0,-0.41 -0.226,-0.597 -0.687,-0.597 h -0.602 c -0.035,0 -0.051,0.019 -0.051,0.05 v 1.09 c 0,0.035 0.016,0.051 0.051,0.051 z m -2.149,-2.234 c 0,-0.051 0.032,-0.086 0.082,-0.086 h 2.356 c 1.293,0 1.886,0.621 1.886,1.539 0,0.593 -0.273,1.011 -0.707,1.242 v 0.016 c 0.426,0.16 0.809,0.644 0.809,1.316 0,1.129 -0.797,1.668 -2.012,1.668 h -2.332 c -0.05,0 -0.082,-0.035 -0.082,-0.086 v -5.609"
       style="fill:#0c244a;fill-opacity:1;fill-rule:nonzero;stroke:none"
       transform="scale(1.3333333)" />
    <path
       id="path5"
       d="m 41.516,71.18 c 0.066,-0.2 0.082,-0.461 0.082,-1.149 0,-0.687 -0.016,-0.953 -0.082,-1.148 -0.106,-0.324 -0.368,-0.508 -0.743,-0.508 -0.371,0 -0.636,0.184 -0.738,0.508 -0.066,0.195 -0.086,0.461 -0.086,1.148 0,0.688 0.02,0.949 0.086,1.149 0.102,0.32 0.367,0.508 0.738,0.508 0.375,0 0.637,-0.188 0.743,-0.508 z m -2.911,0.422 c -0.132,-0.442 -0.167,-0.782 -0.167,-1.571 0,-0.793 0.035,-1.133 0.167,-1.574 0.309,-0.941 1.149,-1.418 2.168,-1.418 1.02,0 1.864,0.477 2.168,1.418 0.145,0.441 0.172,0.781 0.172,1.574 0,0.789 -0.027,1.129 -0.172,1.571 -0.304,0.945 -1.148,1.421 -2.168,1.421 -1.019,0 -1.859,-0.476 -2.168,-1.421"
       style="fill:#0c244a;fill-opacity:1;fill-rule:nonzero;stroke:none"
       transform="scale(1.3333333)" />
    <path
       id="path6"
       d="m 48.637,69.02 c 0,-0.375 -0.254,-0.614 -0.68,-0.614 h -0.801 c -0.031,0 -0.051,0.02 -0.051,0.051 v 1.121 c 0,0.035 0.02,0.055 0.051,0.055 h 0.801 c 0.426,0 0.68,-0.238 0.68,-0.613 z m 0.078,3.902 c -0.078,0 -0.102,-0.027 -0.129,-0.086 l -0.875,-1.973 h -0.555 c -0.031,0 -0.051,0.016 -0.051,0.051 v 1.922 c 0,0.051 -0.031,0.086 -0.082,0.086 h -1.328 c -0.05,0 -0.086,-0.035 -0.086,-0.086 v -5.609 c 0,-0.051 0.036,-0.086 0.086,-0.086 h 2.356 c 1.324,0 2.082,0.773 2.082,1.863 0,0.719 -0.34,1.308 -0.953,1.613 l 1.062,2.199 c 0.028,0.055 0,0.106 -0.058,0.106 h -1.469"
       style="fill:#0c244a;fill-opacity:1;fill-rule:nonzero;stroke:none"
       transform="scale(1.3333333)" />
    <path
       id="path7"
       d="m 52.48,70.031 c 0,-0.793 0.032,-1.133 0.168,-1.574 0.309,-0.941 1.149,-1.418 2.176,-1.418 1.063,0 1.778,0.492 2.102,1.231 0.023,0.062 0.008,0.113 -0.043,0.136 l -1.106,0.469 c -0.05,0.023 -0.101,0.008 -0.129,-0.035 -0.195,-0.313 -0.425,-0.465 -0.824,-0.465 -0.39,0 -0.644,0.184 -0.746,0.508 -0.07,0.203 -0.086,0.461 -0.086,1.148 0,0.688 0.028,0.949 0.086,1.149 0.11,0.32 0.375,0.508 0.789,0.508 0.375,0 0.672,-0.161 0.766,-0.458 0.035,-0.105 0.051,-0.222 0.051,-0.375 0,-0.035 -0.016,-0.05 -0.051,-0.05 h -0.629 c -0.051,0 -0.086,-0.035 -0.086,-0.086 v -0.961 c 0,-0.051 0.035,-0.086 0.086,-0.086 h 2.066 c 0.051,0 0.082,0.035 0.082,0.086 v 0.441 c 0,0.555 -0.031,0.989 -0.152,1.344 -0.305,0.961 -1.121,1.48 -2.176,1.48 -1.027,0 -1.867,-0.476 -2.176,-1.421 C 52.512,71.16 52.48,70.82 52.48,70.031"
       style="fill:#0c244a;fill-opacity:1;fill-rule:nonzero;stroke:none"
       transform="scale(1.3333333)" />
    <path
       id="path8"
       d="m 63.359,70.684 v -3.457 c 0,-0.051 0.036,-0.086 0.086,-0.086 h 1.325 c 0.05,0 0.085,0.035 0.085,0.086 v 3.55 c 0,0.578 0.325,0.911 0.809,0.911 0.5,0 0.797,-0.333 0.797,-0.911 v -3.55 c 0,-0.051 0.035,-0.086 0.086,-0.086 h 1.324 c 0.051,0 0.086,0.035 0.086,0.086 v 3.457 c 0,1.539 -0.918,2.339 -2.293,2.339 -1.402,0 -2.305,-0.8 -2.305,-2.339"
       style="fill:#0c244a;fill-opacity:1;fill-rule:nonzero;stroke:none"
       transform="scale(1.3333333)" />
    <path
       id="path9"
       d="m 70.574,67.227 c 0,-0.051 0.035,-0.086 0.086,-0.086 h 1.25 c 0.059,0 0.121,0.027 0.145,0.086 l 1.742,3.269 h 0.035 v -3.269 c 0,-0.051 0.031,-0.086 0.082,-0.086 h 1.191 c 0.051,0 0.086,0.035 0.086,0.086 v 5.609 c 0,0.051 -0.035,0.086 -0.086,0.086 h -1.25 c -0.058,0 -0.117,-0.027 -0.144,-0.086 L 71.988,69.57 h -0.054 v 3.266 c 0,0.051 -0.032,0.086 -0.082,0.086 H 70.66 c -0.051,0 -0.086,-0.035 -0.086,-0.086 v -5.609"
       style="fill:#0c244a;fill-opacity:1;fill-rule:nonzero;stroke:none"
       transform="scale(1.3333333)" />
    <path
       id="path10"
       d="m 77.828,67.227 c 0,-0.051 0.031,-0.086 0.082,-0.086 h 1.328 c 0.051,0 0.086,0.035 0.086,0.086 v 5.609 c 0,0.051 -0.035,0.086 -0.086,0.086 H 77.91 c -0.051,0 -0.082,-0.035 -0.082,-0.086 v -5.609"
       style="fill:#0c244a;fill-opacity:1;fill-rule:nonzero;stroke:none"
       transform="scale(1.3333333)" />
    <path
       id="path11"
       d="m 83.52,72.922 c -0.059,0 -0.094,-0.027 -0.11,-0.086 l -1.844,-5.602 c -0.015,-0.05 0.016,-0.093 0.079,-0.093 h 1.39 c 0.063,0 0.094,0.027 0.113,0.086 l 1.028,3.484 h 0.027 l 0.992,-3.484 c 0.016,-0.059 0.051,-0.086 0.11,-0.086 h 1.386 c 0.059,0 0.086,0.043 0.067,0.093 l -1.844,5.602 c -0.016,0.059 -0.051,0.086 -0.109,0.086 H 83.52"
       style="fill:#0c244a;fill-opacity:1;fill-rule:nonzero;stroke:none"
       transform="scale(1.3333333)" />
    <path
       id="path12"
       d="m 89.004,67.227 c 0,-0.051 0.035,-0.086 0.086,-0.086 h 3.781 c 0.051,0 0.086,0.035 0.086,0.086 v 1.093 c 0,0.055 -0.035,0.086 -0.086,0.086 h -2.32 c -0.035,0 -0.051,0.02 -0.051,0.051 v 0.875 c 0,0.035 0.016,0.051 0.051,0.051 h 1.902 c 0.051,0 0.086,0.035 0.086,0.086 v 1.07 c 0,0.051 -0.035,0.086 -0.086,0.086 h -1.902 c -0.035,0 -0.051,0.016 -0.051,0.051 v 0.926 c 0,0.035 0.016,0.05 0.051,0.05 h 2.32 c 0.051,0 0.086,0.036 0.086,0.086 v 1.098 c 0,0.051 -0.035,0.086 -0.086,0.086 H 89.09 c -0.051,0 -0.086,-0.035 -0.086,-0.086 v -5.609"
       style="fill:#0c244a;fill-opacity:1;fill-rule:nonzero;stroke:none"
       transform="scale(1.3333333)" />
    <path
       id="path13"
       d="m 98.465,69.02 c 0,-0.375 -0.254,-0.614 -0.68,-0.614 h -0.801 c -0.031,0 -0.05,0.02 -0.05,0.051 v 1.121 c 0,0.035 0.019,0.055 0.05,0.055 h 0.801 c 0.426,0 0.68,-0.238 0.68,-0.613 z m 0.074,3.902 c -0.074,0 -0.101,-0.027 -0.125,-0.086 l -0.875,-1.973 h -0.555 c -0.031,0 -0.05,0.016 -0.05,0.051 v 1.922 c 0,0.051 -0.036,0.086 -0.086,0.086 h -1.325 c -0.05,0 -0.085,-0.035 -0.085,-0.086 v -5.609 c 0,-0.051 0.035,-0.086 0.085,-0.086 h 2.356 c 1.324,0 2.082,0.773 2.082,1.863 0,0.719 -0.34,1.308 -0.953,1.613 l 1.062,2.199 c 0.028,0.055 0,0.106 -0.058,0.106 h -1.473"
       style="fill:#0c244a;fill-opacity:1;fill-rule:nonzero;stroke:none"
       transform="scale(1.3333333)" />
    <path
       id="path14"
       d="m 102.238,72.199 c -0.043,-0.035 -0.05,-0.094 -0.008,-0.137 l 0.766,-0.902 c 0.031,-0.043 0.082,-0.043 0.117,-0.008 0.348,0.305 0.895,0.578 1.473,0.578 0.531,0 0.812,-0.222 0.812,-0.542 0,-0.247 -0.16,-0.411 -0.73,-0.485 l -0.305,-0.043 c -1.25,-0.18 -1.929,-0.738 -1.929,-1.82 0,-1.078 0.839,-1.801 2.152,-1.801 0.797,0 1.547,0.246 2.062,0.637 0.043,0.035 0.051,0.078 0.016,0.129 l -0.637,0.925 c -0.031,0.043 -0.074,0.051 -0.117,0.024 -0.406,-0.27 -0.844,-0.434 -1.301,-0.434 -0.425,0 -0.636,0.207 -0.636,0.485 0,0.257 0.187,0.418 0.738,0.488 l 0.305,0.039 c 1.269,0.18 1.914,0.742 1.914,1.836 0,1.07 -0.817,1.855 -2.364,1.855 -0.941,0 -1.894,-0.402 -2.328,-0.824"
       style="fill:#0c244a;fill-opacity:1;fill-rule:nonzero;stroke:none"
       transform="scale(1.3333333)" />
    <path
       id="path15"
       d="m 109.328,67.227 c 0,-0.051 0.031,-0.086 0.082,-0.086 h 1.328 c 0.051,0 0.086,0.035 0.086,0.086 v 5.609 c 0,0.051 -0.035,0.086 -0.086,0.086 h -1.328 c -0.051,0 -0.082,-0.035 -0.082,-0.086 v -5.609"
       style="fill:#0c244a;fill-opacity:1;fill-rule:nonzero;stroke:none"
       transform="scale(1.3333333)" />
    <path
       id="path16"
       d="m 114.734,72.922 h -0.027 c -0.016,0 -0.023,-0.012 -0.043,-0.027 -0.008,-0.008 -0.016,-0.016 -0.016,-0.036 V 68.52 c 0,-0.028 -0.015,-0.043 -0.043,-0.055 h -1.453 c -0.015,0 -0.027,-0.008 -0.035,-0.016 l -0.008,-0.008 c 0,0 0,-0.007 -0.007,-0.007 -0.008,-0.02 -0.008,-0.036 -0.008,-0.051 v -1.156 c 0,-0.043 0.023,-0.079 0.058,-0.086 h 4.461 c 0.028,0 0.043,0.007 0.063,0.027 0,0 0.008,0.008 0.008,0.016 0.007,0.007 0.015,0.023 0.015,0.043 v 1.156 c 0,0.023 -0.008,0.051 -0.023,0.066 -0.012,0.008 -0.028,0.016 -0.043,0.016 h -1.438 c -0.015,0 -0.027,0 -0.035,0.012 -0.008,0 -0.008,0.007 -0.015,0.015 v 4.367 c -0.008,0.028 -0.016,0.036 -0.043,0.051 -0.008,0.012 -0.028,0.012 -0.043,0.012 h -1.325"
       style="fill:#0c244a;fill-opacity:1;fill-rule:nonzero;stroke:none"
       transform="scale(1.3333333)" />
    <path
       id="path17"
       d="m 121.398,72.922 c -0.05,0 -0.086,-0.035 -0.086,-0.086 v -2.152 l -1.75,-3.45 c -0.019,-0.05 0.008,-0.093 0.067,-0.093 h 1.336 c 0.058,0 0.101,0.027 0.133,0.086 l 0.968,1.972 h 0.028 l 0.953,-1.972 c 0.023,-0.059 0.074,-0.086 0.137,-0.086 h 1.304 c 0.071,0 0.086,0.043 0.071,0.093 l -1.75,3.45 v 2.152 c 0,0.051 -0.036,0.086 -0.086,0.086 h -1.325"
       style="fill:#0c244a;fill-opacity:1;fill-rule:nonzero;stroke:none"
       transform="scale(1.3333333)" />
    <path
       id="path18"
       d="m 44.723,84.461 h 1.293 c 0.746,0 1.242,-0.262 1.445,-0.875 0.094,-0.281 0.137,-0.578 0.137,-1.555 0,-0.976 -0.043,-1.277 -0.137,-1.554 -0.203,-0.614 -0.699,-0.875 -1.445,-0.875 h -1.293 c -0.032,0 -0.051,0.015 -0.051,0.05 v 4.758 c 0,0.035 0.019,0.051 0.051,0.051 z m -0.535,-5.234 c 0,-0.051 0.035,-0.086 0.085,-0.086 h 1.809 c 0.961,0 1.59,0.382 1.844,1.171 0.113,0.34 0.164,0.665 0.164,1.719 0,1.055 -0.051,1.375 -0.164,1.715 -0.254,0.793 -0.883,1.176 -1.844,1.176 h -1.809 c -0.05,0 -0.085,-0.035 -0.085,-0.086 v -5.609"
       style="fill:#0c244a;fill-opacity:1;fill-rule:nonzero;stroke:none"
       transform="scale(1.3333333)" />
    <path
       id="path19"
       d="m 51.156,79.227 c 0,-0.051 0.035,-0.086 0.086,-0.086 h 3.305 c 0.055,0 0.086,0.035 0.086,0.086 v 0.289 c 0,0.05 -0.031,0.086 -0.086,0.086 h -2.852 c -0.035,0 -0.054,0.015 -0.054,0.05 v 2.055 c 0,0.035 0.019,0.051 0.054,0.051 h 2.453 c 0.051,0 0.086,0.035 0.086,0.086 v 0.289 c 0,0.051 -0.035,0.086 -0.086,0.086 h -2.453 c -0.035,0 -0.054,0.015 -0.054,0.051 v 2.14 c 0,0.035 0.019,0.051 0.054,0.051 h 2.852 c 0.055,0 0.086,0.035 0.086,0.086 v 0.289 c 0,0.051 -0.031,0.086 -0.086,0.086 h -3.305 c -0.051,0 -0.086,-0.035 -0.086,-0.086 v -5.609"
       style="fill:#0c244a;fill-opacity:1;fill-rule:nonzero;stroke:none"
       transform="scale(1.3333333)" />
    <path
       id="path20"
       d="m 57.586,79.227 c 0,-0.051 0.031,-0.086 0.082,-0.086 h 0.316 c 0.059,0 0.11,0.015 0.145,0.086 l 2.879,4.75 h 0.027 v -4.75 c 0,-0.051 0.035,-0.086 0.086,-0.086 h 0.313 c 0.05,0 0.086,0.035 0.086,0.086 v 5.609 c 0,0.051 -0.036,0.086 -0.086,0.086 h -0.332 c -0.051,0 -0.102,-0.02 -0.145,-0.086 L 58.102,80.074 H 58.07 v 4.762 c 0,0.051 -0.035,0.086 -0.086,0.086 h -0.316 c -0.051,0 -0.082,-0.035 -0.082,-0.086 v -5.609"
       style="fill:#0c244a;fill-opacity:1;fill-rule:nonzero;stroke:none"
       transform="scale(1.3333333)" />
    <path
       id="path21"
       d="m 64.816,79.227 c 0,-0.051 0.036,-0.086 0.086,-0.086 h 0.325 c 0.058,0 0.101,0.027 0.125,0.086 l 1.878,4.136 h 0.036 l 1.836,-4.136 c 0.023,-0.059 0.066,-0.086 0.117,-0.086 h 0.332 c 0.051,0 0.086,0.035 0.086,0.086 v 5.609 c 0,0.051 -0.035,0.086 -0.086,0.086 h -0.313 c -0.05,0 -0.086,-0.035 -0.086,-0.086 v -4.524 h -0.027 l -1.664,3.665 c -0.035,0.066 -0.066,0.093 -0.152,0.093 h -0.172 c -0.075,0 -0.11,-0.027 -0.145,-0.093 l -1.664,-3.665 h -0.027 v 4.524 c 0,0.051 -0.031,0.086 -0.082,0.086 h -0.317 c -0.05,0 -0.086,-0.035 -0.086,-0.086 v -5.609"
       style="fill:#0c244a;fill-opacity:1;fill-rule:nonzero;stroke:none"
       transform="scale(1.3333333)" />
    <path
       id="path22"
       d="M 75.766,82.949 74.684,79.922 H 74.66 l -1.086,3.027 z m -1.344,-3.722 c 0.016,-0.051 0.051,-0.086 0.101,-0.086 h 0.309 c 0.059,0 0.082,0.035 0.102,0.086 l 2.004,5.609 c 0.015,0.051 -0.008,0.086 -0.059,0.086 h -0.332 c -0.059,0 -0.094,-0.02 -0.109,-0.086 L 75.926,83.414 H 73.41 l -0.508,1.422 c -0.027,0.066 -0.062,0.086 -0.113,0.086 h -0.332 c -0.051,0 -0.074,-0.035 -0.059,-0.086 l 2.024,-5.609"
       style="fill:#0c244a;fill-opacity:1;fill-rule:nonzero;stroke:none"
       transform="scale(1.3333333)" />
    <path
       id="path23"
       d="m 83,80.738 c 0,-0.722 -0.461,-1.136 -1.285,-1.136 h -1.481 c -0.031,0 -0.05,0.015 -0.05,0.05 v 2.176 c 0,0.031 0.019,0.051 0.05,0.051 h 1.481 c 0.824,0 1.285,-0.41 1.285,-1.141 z m 0.125,4.184 c -0.051,0 -0.074,-0.02 -0.102,-0.078 l -1.214,-2.508 h -1.575 c -0.031,0 -0.05,0.016 -0.05,0.051 v 2.449 c 0,0.051 -0.032,0.086 -0.082,0.086 h -0.317 c -0.051,0 -0.086,-0.035 -0.086,-0.086 v -5.609 c 0,-0.051 0.035,-0.086 0.086,-0.086 h 1.938 c 1.089,0 1.761,0.613 1.761,1.597 0,0.801 -0.445,1.352 -1.183,1.532 l 1.258,2.558 c 0.035,0.051 0.007,0.094 -0.043,0.094 h -0.391"
       style="fill:#0c244a;fill-opacity:1;fill-rule:nonzero;stroke:none"
       transform="scale(1.3333333)" />
    <path
       id="path24"
       d="m 86.629,79.227 c 0,-0.051 0.031,-0.086 0.086,-0.086 h 0.312 c 0.051,0 0.086,0.035 0.086,0.086 v 3.332 l 2.754,-3.34 c 0.051,-0.051 0.086,-0.078 0.145,-0.078 h 0.398 c 0.051,0 0.078,0.05 0.035,0.093 l -1.828,2.184 1.973,3.41 c 0.031,0.051 0.008,0.094 -0.043,0.094 h -0.383 c -0.059,0 -0.094,-0.027 -0.129,-0.078 l -1.742,-3.035 -1.18,1.41 v 1.617 c 0,0.051 -0.035,0.086 -0.086,0.086 h -0.312 c -0.055,0 -0.086,-0.035 -0.086,-0.086 v -5.609"
       style="fill:#0c244a;fill-opacity:1;fill-rule:nonzero;stroke:none"
       transform="scale(1.3333333)" />
    <path
       id="path25"
       d="m 83.957,42.352 c -1.074,-0.481 -2.187,-0.883 -4.012,-1.989 -5.113,-3.121 -6.668,-7.761 -3.793,-15.859 1.664,-4.688 2.465,-8.645 2.051,-12.91 -0.055,-0.039 -0.117,-0.074 -0.172,-0.11 -0.269,5.356 -2.246,8.688 -5.785,14.325 -7.496,11.945 0.117,20.699 3.731,23.421 3.191,-1.605 5.929,-3.98 7.98,-6.878"
       style="fill:#0c244a;fill-opacity:1;fill-rule:nonzero;stroke:none"
       transform="scale(1.3333333)" />
    <path
       id="path26"
       d="m 68.777,25.371 c 5.778,-6.801 7.657,-9.937 8.047,-14.617 -0.062,-0.035 -0.121,-0.074 -0.183,-0.109 -1.34,5.601 -4.7,8.57 -13.547,14.464 -9.535,6.348 -9.106,17.258 -6.68,24.051 2.957,1.516 6.305,2.379 9.856,2.379 0.753,0 1.503,-0.043 2.238,-0.117 C 61.625,40.98 62.102,33.227 68.777,25.371"
       style="fill:#0c244a;fill-opacity:1;fill-rule:nonzero;stroke:none"
       transform="scale(1.3333333)" />
    <path
       id="path27"
       d="m 65.242,20.352 c 6.383,-2.77 9.41,-6.977 10.285,-10.27 -0.054,-0.027 -0.113,-0.055 -0.172,-0.078 -2.777,5.812 -8.324,6.781 -17.808,8.051 -5.625,0.754 -9.996,3.976 -12.637,7.965 -0.211,1.218 -0.324,2.468 -0.324,3.746 0,5.183 1.805,9.941 4.816,13.679 -0.265,-16.281 8.188,-19.773 15.84,-23.093"
       style="fill:#0c244a;fill-opacity:1;fill-rule:nonzero;stroke:none"
       transform="scale(1.3333333)" />
  </g>
</svg>
