<svg viewBox="0 0 244 60" xmlns="http://www.w3.org/2000/svg" xml:space="preserve" style="fill-rule:evenodd;clip-rule:evenodd;stroke-linejoin:round;stroke-miterlimit:2"><path d="M101.381 17.698h2.822c.076 0 .103-.037.076-.114l-1.44-4.868c-.012-.05-.031-.074-.056-.068-.026.006-.044.03-.057.068l-1.42 4.868c-.014.077.011.114.075.114m4.168 4.19-.492-1.688c-.026-.05-.057-.076-.095-.076h-4.32c-.037 0-.07.025-.095.076l-.492 1.687c-.039.125-.127.187-.266.187H96.89c-.075 0-.132-.02-.17-.065-.038-.045-.044-.11-.019-.199l4.055-12.808c.037-.126.12-.19.245-.19h3.582c.126 0 .208.064.247.19l4.073 12.808a.222.222 0 0 1 .018.094c0 .115-.069.17-.208.17h-2.898c-.14 0-.228-.062-.266-.187M118.381 17.698h2.822c.076 0 .103-.037.076-.114l-1.44-4.868c-.012-.05-.031-.074-.056-.068-.026.006-.044.03-.057.068l-1.42 4.868c-.014.077.011.114.075.114m4.168 4.19-.492-1.688c-.026-.05-.057-.076-.095-.076h-4.32c-.037 0-.07.025-.095.076l-.492 1.687c-.039.125-.127.187-.266.187h-2.899c-.075 0-.132-.02-.17-.065-.038-.045-.044-.11-.019-.199l4.055-12.808c.037-.126.12-.19.245-.19h3.582c.126 0 .208.064.247.19l4.073 12.808a.222.222 0 0 1 .018.094c0 .115-.069.17-.208.17h-2.898c-.14 0-.228-.062-.266-.187M130.342 22.01a.22.22 0 0 1-.067-.164V9.04c0-.063.022-.117.067-.16a.216.216 0 0 1 .161-.068h2.69c.063 0 .117.023.161.068a.217.217 0 0 1 .067.16V19.29c0 .063.031.094.094.094h6.045c.063 0 .115.022.16.067a.219.219 0 0 1 .067.161v2.234a.223.223 0 0 1-.067.163.219.219 0 0 1-.16.066h-9.057a.218.218 0 0 1-.161-.066M150.985 19.015c.278-.234.417-.57.417-1.013 0-.43-.136-.763-.408-.996-.271-.233-.667-.35-1.184-.35h-2.027c-.063 0-.096.031-.096.095v2.52c0 .063.033.094.096.094h2.027c.505 0 .896-.116 1.175-.35m-3.298-7.418v2.388c0 .062.033.094.096.094h1.876c.517 0 .915-.11 1.193-.33.278-.222.418-.535.418-.94 0-.416-.14-.738-.418-.966-.278-.227-.676-.34-1.193-.34h-1.876c-.063 0-.096.032-.096.094m5.135 3.694c1.15.607 1.725 1.617 1.725 3.032 0 1.264-.436 2.204-1.307 2.823-.873.62-2.015.93-3.43.93h-5.04a.213.213 0 0 1-.16-.068.215.215 0 0 1-.067-.16V9.037c0-.062.022-.116.067-.16a.217.217 0 0 1 .16-.067h4.889c1.54 0 2.705.291 3.495.873.789.581 1.185 1.522 1.185 2.823 0 1.238-.506 2.13-1.517 2.671-.075.038-.075.076 0 .113M166.057 19.005c.373-.392.56-.914.56-1.572v-3.922c0-.644-.187-1.165-.56-1.565-.372-.396-.861-.596-1.468-.596-.593 0-1.077.2-1.45.596-.372.4-.559.921-.559 1.565v3.922c0 .658.187 1.18.559 1.572.373.392.857.587 1.45.587.607 0 1.096-.195 1.468-.587m-4.168 2.662a4.433 4.433 0 0 1-1.81-1.733c-.43-.745-.643-1.61-.643-2.597V13.55c0-.959.213-1.81.643-2.548a4.455 4.455 0 0 1 1.81-1.726c.777-.41 1.677-.615 2.7-.615 1.023 0 1.926.205 2.709.615.783.411 1.39.986 1.82 1.726.429.738.643 1.59.643 2.548v3.788c0 .986-.214 1.852-.643 2.597a4.422 4.422 0 0 1-1.82 1.733c-.783.41-1.686.616-2.709.616-1.023 0-1.923-.206-2.7-.616M177.964 11.597v2.69c0 .065.031.095.096.095h2.103c.466 0 .846-.129 1.137-.389.29-.258.435-.603.435-1.03 0-.443-.145-.797-.435-1.063-.291-.266-.671-.398-1.137-.398h-2.103c-.065 0-.096.032-.096.095m3.695 10.307-2.236-5.04c-.025-.05-.063-.075-.113-.075h-1.25c-.065 0-.096.032-.096.095v4.963a.222.222 0 0 1-.066.162.219.219 0 0 1-.16.066h-2.691a.222.222 0 0 1-.162-.066.221.221 0 0 1-.065-.162V9.04c0-.063.021-.117.065-.16a.22.22 0 0 1 .162-.068h5.626c.835 0 1.568.171 2.199.512a3.603 3.603 0 0 1 1.468 1.45c.348.624.521 1.342.521 2.15 0 .847-.208 1.58-.624 2.2-.417.618-.999 1.067-1.744 1.344-.063.024-.082.07-.058.133l2.502 5.21c.025.05.038.09.038.113 0 .102-.07.152-.208.152h-2.843a.267.267 0 0 1-.265-.17M192.071 21.62a4.373 4.373 0 0 1-1.781-1.704c-.423-.734-.634-1.58-.634-2.539v-3.885c0-.96.211-1.803.634-2.53a4.388 4.388 0 0 1 1.781-1.695c.764-.403 1.651-.607 2.663-.607.997 0 1.882.192 2.652.578.771.386 1.368.912 1.791 1.582.422.67.634 1.41.634 2.216v.095a.216.216 0 0 1-.066.161.214.214 0 0 1-.16.067h-2.691a.214.214 0 0 1-.162-.067.216.216 0 0 1-.066-.16c0-.493-.174-.913-.521-1.26-.347-.348-.818-.522-1.411-.522-.582 0-1.049.19-1.403.57-.354.378-.531.871-.531 1.477v4.074c0 .607.197 1.1.589 1.478.39.38.882.567 1.478.567.555 0 1.003-.147 1.344-.445.341-.296.513-.71.513-1.24v-.53c0-.063-.033-.096-.095-.096h-1.895a.218.218 0 0 1-.162-.066.22.22 0 0 1-.066-.162v-2.083c0-.063.022-.117.066-.16a.22.22 0 0 1 .162-.068h4.851c.062 0 .115.023.16.068a.216.216 0 0 1 .066.16v2.577c0 .947-.212 1.78-.634 2.501a4.286 4.286 0 0 1-1.781 1.667c-.765.392-1.651.588-2.662.588-1.012 0-1.899-.202-2.663-.607M99.495 45.332a4.26 4.26 0 0 1-1.781-1.639c-.422-.706-.634-1.52-.634-2.443v-8.527c0-.062.022-.116.067-.16a.214.214 0 0 1 .16-.067h2.691c.063 0 .116.022.161.067a.218.218 0 0 1 .065.16v8.527c0 .593.174 1.07.523 1.43.346.36.811.541 1.392.541.569 0 1.026-.18 1.373-.54.348-.36.521-.838.521-1.43v-8.528c0-.062.022-.116.067-.16a.215.215 0 0 1 .161-.067h2.69c.064 0 .117.022.161.067a.212.212 0 0 1 .067.16v8.527c0 .922-.208 1.737-.625 2.443a4.19 4.19 0 0 1-1.772 1.64c-.764.386-1.645.578-2.643.578-.999 0-1.88-.192-2.644-.579M119.959 32.563a.218.218 0 0 1 .162-.068h2.689a.22.22 0 0 1 .162.068.224.224 0 0 1 .066.161v12.808a.22.22 0 0 1-.066.16.216.216 0 0 1-.162.068h-2.577c-.125 0-.214-.05-.264-.152l-4.358-7.237c-.027-.04-.051-.054-.076-.048-.026.006-.038.035-.038.085l.018 7.124a.216.216 0 0 1-.066.16.213.213 0 0 1-.16.068h-2.691a.212.212 0 0 1-.161-.068.212.212 0 0 1-.066-.16V32.724c0-.063.021-.117.066-.16a.216.216 0 0 1 .161-.069h2.595c.127 0 .215.052.266.153l4.339 7.22c.025.036.05.052.076.045.025-.005.037-.034.037-.084l-.019-7.105c0-.063.022-.117.067-.16M128.39 45.693a.217.217 0 0 1-.067-.162V32.724c0-.064.022-.117.067-.16a.212.212 0 0 1 .161-.068h2.69c.063 0 .117.022.161.068a.215.215 0 0 1 .067.16v12.807a.221.221 0 0 1-.067.162.217.217 0 0 1-.161.067h-2.69a.215.215 0 0 1-.161-.067M140.128 45.57l-3.827-12.809-.02-.076c0-.126.07-.19.209-.19h2.899c.139 0 .227.064.265.19l2.178 8.622c.014.037.032.056.058.056.025 0 .044-.019.057-.056l2.14-8.622c.039-.126.128-.19.267-.19h2.841c.076 0 .132.027.171.077.038.05.044.113.019.19L143.5 45.57c-.038.127-.12.19-.246.19h-2.879c-.128 0-.209-.063-.247-.19M161.471 35.12a.215.215 0 0 1-.161.067h-5.949c-.064 0-.095.031-.095.095v2.33c0 .064.031.094.095.094h3.808c.063 0 .117.022.161.068a.214.214 0 0 1 .067.16v2.217a.218.218 0 0 1-.067.161.219.219 0 0 1-.161.065h-3.808c-.064 0-.095.034-.095.096v2.5c0 .064.031.095.095.095h5.949c.064 0 .117.023.161.067a.22.22 0 0 1 .067.161v2.236a.215.215 0 0 1-.067.161.215.215 0 0 1-.161.067h-8.962a.213.213 0 0 1-.16-.067.212.212 0 0 1-.067-.16V32.723c0-.063.021-.118.067-.16a.21.21 0 0 1 .16-.068h8.962c.064 0 .117.021.161.067a.215.215 0 0 1 .067.161v2.234a.217.217 0 0 1-.067.162M169.609 35.281v2.69c0 .065.031.096.096.096h2.103c.466 0 .846-.13 1.137-.389.29-.258.435-.603.435-1.032 0-.442-.145-.796-.435-1.062-.291-.265-.671-.397-1.137-.397h-2.103c-.065 0-.096.031-.096.094m3.695 10.307-2.236-5.039c-.025-.05-.063-.075-.113-.075h-1.25c-.065 0-.096.031-.096.094v4.964a.216.216 0 0 1-.066.16.213.213 0 0 1-.16.068h-2.691a.216.216 0 0 1-.162-.068.215.215 0 0 1-.065-.16V32.724c0-.063.021-.117.065-.16a.216.216 0 0 1 .162-.068h5.626c.835 0 1.568.171 2.199.512a3.597 3.597 0 0 1 1.468 1.45c.348.624.521 1.341.521 2.15 0 .847-.208 1.578-.624 2.198-.417.62-.999 1.068-1.744 1.345-.063.025-.082.07-.058.133l2.502 5.21a.296.296 0 0 1 .038.114c0 .101-.07.152-.208.152h-2.843a.27.27 0 0 1-.265-.172M183.584 45.408c-.777-.334-1.377-.813-1.8-1.439-.423-.625-.634-1.349-.634-2.17v-.36c0-.063.021-.117.065-.16a.221.221 0 0 1 .161-.067h2.635a.22.22 0 0 1 .16.066.22.22 0 0 1 .066.161v.228c0 .417.208.78.625 1.09.418.31.979.463 1.686.463.557 0 .967-.12 1.233-.36.265-.24.397-.518.397-.833a.844.844 0 0 0-.236-.617 1.89 1.89 0 0 0-.635-.396 23.304 23.304 0 0 0-1.232-.446 1.095 1.095 0 0 0-.228-.086 1.68 1.68 0 0 1-.207-.066 14.273 14.273 0 0 1-2.142-.863 4.612 4.612 0 0 1-1.554-1.287c-.429-.55-.643-1.228-.643-2.038 0-.783.205-1.468.615-2.054.41-.589.982-1.04 1.715-1.356.732-.315 1.56-.474 2.482-.474.972 0 1.847.178 2.624.532.777.353 1.387.851 1.828 1.496.443.643.665 1.383.665 2.217v.265a.223.223 0 0 1-.068.161.22.22 0 0 1-.16.067h-2.634a.223.223 0 0 1-.162-.067.22.22 0 0 1-.065-.16v-.133c0-.443-.196-.834-.588-1.175-.391-.342-.916-.512-1.572-.512-.493 0-.879.102-1.157.303-.278.202-.417.487-.417.852 0 .28.089.51.266.692.178.184.452.354.824.512.374.16.944.363 1.716.616.883.303 1.572.57 2.064.796.493.227.957.597 1.393 1.108.436.512.654 1.184.654 2.018 0 .821-.209 1.528-.626 2.122-.417.594-1.001 1.052-1.753 1.374-.751.322-1.627.482-2.623.482-1.048 0-1.961-.166-2.738-.502M196.336 45.693a.217.217 0 0 1-.067-.162V32.724c0-.064.022-.117.067-.16a.21.21 0 0 1 .161-.068h2.69c.063 0 .116.022.161.068a.215.215 0 0 1 .067.16v12.807a.221.221 0 0 1-.067.162.218.218 0 0 1-.161.067h-2.69a.214.214 0 0 1-.161-.067M214.449 32.563a.224.224 0 0 1 .066.161v2.255a.223.223 0 0 1-.066.16.223.223 0 0 1-.162.066h-3.315c-.064 0-.095.032-.095.095v10.232a.216.216 0 0 1-.066.16.214.214 0 0 1-.161.068h-2.691a.212.212 0 0 1-.16-.068.213.213 0 0 1-.067-.16V35.3c0-.063-.032-.095-.095-.095h-3.203a.219.219 0 0 1-.16-.066.219.219 0 0 1-.066-.16v-2.255a.22.22 0 0 1 .066-.16.217.217 0 0 1 .16-.069h9.853c.063 0 .117.023.162.068M228.64 35.12a.215.215 0 0 1-.161.067h-5.949c-.064 0-.095.031-.095.095v2.33c0 .064.031.094.095.094h3.808c.063 0 .117.022.161.068a.214.214 0 0 1 .067.16v2.217a.218.218 0 0 1-.067.161.219.219 0 0 1-.161.065h-3.808c-.064 0-.095.034-.095.096v2.5c0 .064.031.095.095.095h5.949c.064 0 .117.023.161.067a.22.22 0 0 1 .067.161v2.236a.215.215 0 0 1-.067.161.215.215 0 0 1-.161.067h-8.962a.213.213 0 0 1-.16-.067.212.212 0 0 1-.067-.16V32.723c0-.063.021-.118.067-.16a.21.21 0 0 1 .16-.068h8.962c.064 0 .117.021.161.067a.215.215 0 0 1 .067.161v2.234a.217.217 0 0 1-.067.162M243.381 32.563a.22.22 0 0 1 .067.161v2.255a.218.218 0 0 1-.067.16.223.223 0 0 1-.162.067h-3.314c-.065 0-.096.031-.096.094v10.232a.21.21 0 0 1-.066.16.212.212 0 0 1-.161.068h-2.691a.213.213 0 0 1-.16-.068.214.214 0 0 1-.066-.16V35.3c0-.063-.033-.094-.096-.094h-3.202a.218.218 0 0 1-.16-.067.214.214 0 0 1-.067-.16v-2.255c0-.063.022-.117.067-.161a.214.214 0 0 1 .16-.067h9.852c.063 0 .118.022.162.067M56.913 45.79c-1.532-.698-3.072-.989-5.688-2.844-6.654-4.72-9.649-10.186-5.388-21.75 2.459-6.672 3.464-11.58 3.319-18.054-.082-.064-.406-.277-.483-.34-1.326 8.044-3.543 12.01-8.535 20.114-11.296 18.345-.675 29.574 4.344 33.626 4.646-2.232 9.509-6.103 12.431-10.752"></path><path d="M34.789 22.288C42.666 12.334 45.893 8.17 46.59 1.485c-.089-.049-.331-.177-.419-.226-2.133 8.075-6.548 11.606-19.729 20.723-13.703 9.48-13.218 23.758-9.483 34.178a30.832 30.832 0 0 0 14.119 3.41c1.084 0 2.155-.058 3.211-.168-9.425-15.077-8.689-25.507.5-37.114"></path><path d="M29.421 14.73c8.937-4.424 12.9-8.843 14.652-14.545A8.04 8.04 0 0 0 43.654 0c-5.062 8.673-11.345 9.312-25.643 11.701C9.8 13.075 5.331 16.661.724 21.715.299 23.528-.003 26.428 0 28.356c.01 7.442 2.552 14.473 7.13 19.925.256-23.296 11.126-28.02 22.291-33.55"></path></svg>